<mxfile host="app.diagrams.net" agent="Mozilla/5.0 (Windows NT 10.0; Win64; x64) AppleWebKit/537.36 (KHTML, like Gecko) Chrome/137.0.0.0 Safari/537.36" version="27.1.1">
  <diagram name="Page-1" id="jQkE00S9qjkgDTYdffkT">
    <mxGraphModel dx="1678" dy="2083" grid="1" gridSize="10" guides="1" tooltips="1" connect="1" arrows="1" fold="1" page="1" pageScale="1" pageWidth="827" pageHeight="1169" math="0" shadow="0">
      <root>
        <mxCell id="0" />
        <mxCell id="1" parent="0" />
        <mxCell id="cYRIdMAdLQL1WSYvsz5K-1" value="AWS Cloud" style="points=[[0,0],[0.25,0],[0.5,0],[0.75,0],[1,0],[1,0.25],[1,0.5],[1,0.75],[1,1],[0.75,1],[0.5,1],[0.25,1],[0,1],[0,0.75],[0,0.5],[0,0.25]];outlineConnect=0;gradientColor=none;html=1;whiteSpace=wrap;fontSize=12;fontStyle=0;container=1;pointerEvents=0;collapsible=0;recursiveResize=0;shape=mxgraph.aws4.group;grIcon=mxgraph.aws4.group_aws_cloud_alt;strokeColor=#232F3E;fillColor=none;verticalAlign=top;align=left;spacingLeft=30;fontColor=#232F3E;dashed=0;" vertex="1" parent="1">
          <mxGeometry x="400" y="-330" width="1200" height="910" as="geometry" />
        </mxCell>
        <mxCell id="cYRIdMAdLQL1WSYvsz5K-7" value="" style="sketch=0;points=[[0,0,0],[0.25,0,0],[0.5,0,0],[0.75,0,0],[1,0,0],[0,1,0],[0.25,1,0],[0.5,1,0],[0.75,1,0],[1,1,0],[0,0.25,0],[0,0.5,0],[0,0.75,0],[1,0.25,0],[1,0.5,0],[1,0.75,0]];outlineConnect=0;fontColor=#232F3E;fillColor=#7AA116;strokeColor=#ffffff;dashed=0;verticalLabelPosition=bottom;verticalAlign=top;align=center;html=1;fontSize=12;fontStyle=0;aspect=fixed;shape=mxgraph.aws4.resourceIcon;resIcon=mxgraph.aws4.s3;" vertex="1" parent="cYRIdMAdLQL1WSYvsz5K-1">
          <mxGeometry x="110" y="188.58" width="61.42" height="61.42" as="geometry" />
        </mxCell>
        <mxCell id="cYRIdMAdLQL1WSYvsz5K-9" value="Page Request" style="text;strokeColor=none;align=center;fillColor=none;html=1;verticalAlign=middle;whiteSpace=wrap;rounded=0;" vertex="1" parent="cYRIdMAdLQL1WSYvsz5K-1">
          <mxGeometry x="20" y="180" width="60" height="30" as="geometry" />
        </mxCell>
        <mxCell id="cYRIdMAdLQL1WSYvsz5K-13" value="" style="sketch=0;points=[[0,0,0],[0.25,0,0],[0.5,0,0],[0.75,0,0],[1,0,0],[0,1,0],[0.25,1,0],[0.5,1,0],[0.75,1,0],[1,1,0],[0,0.25,0],[0,0.5,0],[0,0.75,0],[1,0.25,0],[1,0.5,0],[1,0.75,0]];outlineConnect=0;fontColor=#232F3E;fillColor=#DD344C;strokeColor=#ffffff;dashed=0;verticalLabelPosition=bottom;verticalAlign=top;align=center;html=1;fontSize=12;fontStyle=0;aspect=fixed;shape=mxgraph.aws4.resourceIcon;resIcon=mxgraph.aws4.cognito;" vertex="1" parent="cYRIdMAdLQL1WSYvsz5K-1">
          <mxGeometry x="101.71000000000001" y="50" width="78" height="78" as="geometry" />
        </mxCell>
        <mxCell id="cYRIdMAdLQL1WSYvsz5K-15" value="1. Authenticate" style="text;strokeColor=none;align=center;fillColor=none;html=1;verticalAlign=middle;whiteSpace=wrap;rounded=0;" vertex="1" parent="cYRIdMAdLQL1WSYvsz5K-1">
          <mxGeometry y="30" width="90" height="30" as="geometry" />
        </mxCell>
        <mxCell id="cYRIdMAdLQL1WSYvsz5K-24" value="" style="sketch=0;points=[[0,0,0],[0.25,0,0],[0.5,0,0],[0.75,0,0],[1,0,0],[0,1,0],[0.25,1,0],[0.5,1,0],[0.75,1,0],[1,1,0],[0,0.25,0],[0,0.5,0],[0,0.75,0],[1,0.25,0],[1,0.5,0],[1,0.75,0]];outlineConnect=0;fontColor=#232F3E;fillColor=#ED7100;strokeColor=#ffffff;dashed=0;verticalLabelPosition=bottom;verticalAlign=top;align=center;html=1;fontSize=12;fontStyle=0;aspect=fixed;shape=mxgraph.aws4.resourceIcon;resIcon=mxgraph.aws4.lambda;" vertex="1" parent="cYRIdMAdLQL1WSYvsz5K-1">
          <mxGeometry x="310" y="50" width="78" height="78" as="geometry" />
        </mxCell>
        <mxCell id="cYRIdMAdLQL1WSYvsz5K-25" value="" style="edgeStyle=orthogonalEdgeStyle;html=1;endArrow=block;elbow=vertical;startArrow=none;endFill=1;strokeColor=#545B64;rounded=0;exitX=1;exitY=0.5;exitDx=0;exitDy=0;exitPerimeter=0;entryX=0;entryY=0.5;entryDx=0;entryDy=0;entryPerimeter=0;" edge="1" parent="cYRIdMAdLQL1WSYvsz5K-1" source="cYRIdMAdLQL1WSYvsz5K-13" target="cYRIdMAdLQL1WSYvsz5K-24">
          <mxGeometry width="100" relative="1" as="geometry">
            <mxPoint x="320" y="100" as="sourcePoint" />
            <mxPoint x="420" y="100" as="targetPoint" />
          </mxGeometry>
        </mxCell>
        <mxCell id="cYRIdMAdLQL1WSYvsz5K-27" value="Trigger:&#xa;Pre-Signup Lambda" style="text;whiteSpace=wrap;" vertex="1" parent="cYRIdMAdLQL1WSYvsz5K-1">
          <mxGeometry x="189.99999999999994" y="50" width="140" height="40" as="geometry" />
        </mxCell>
        <mxCell id="cYRIdMAdLQL1WSYvsz5K-28" value="TaskFlow-PreSignupValidation" style="text;whiteSpace=wrap;" vertex="1" parent="cYRIdMAdLQL1WSYvsz5K-1">
          <mxGeometry x="264" y="130" width="170" height="40" as="geometry" />
        </mxCell>
        <mxCell id="cYRIdMAdLQL1WSYvsz5K-29" value="" style="outlineConnect=0;dashed=0;verticalLabelPosition=bottom;verticalAlign=top;align=center;html=1;shape=mxgraph.aws3.cognito;fillColor=#AD688B;gradientColor=none;" vertex="1" parent="cYRIdMAdLQL1WSYvsz5K-1">
          <mxGeometry x="470" y="42.5" width="76.5" height="93" as="geometry" />
        </mxCell>
        <mxCell id="cYRIdMAdLQL1WSYvsz5K-30" value="User Pool" style="text;whiteSpace=wrap;" vertex="1" parent="cYRIdMAdLQL1WSYvsz5K-1">
          <mxGeometry x="478.25" y="135.5" width="60" height="40" as="geometry" />
        </mxCell>
        <mxCell id="cYRIdMAdLQL1WSYvsz5K-31" value="" style="edgeStyle=orthogonalEdgeStyle;html=1;endArrow=openThin;elbow=vertical;startArrow=none;endFill=0;strokeColor=#545B64;rounded=0;exitX=1;exitY=0.5;exitDx=0;exitDy=0;exitPerimeter=0;" edge="1" parent="cYRIdMAdLQL1WSYvsz5K-1" source="cYRIdMAdLQL1WSYvsz5K-24" target="cYRIdMAdLQL1WSYvsz5K-29">
          <mxGeometry width="100" relative="1" as="geometry">
            <mxPoint x="320" y="100" as="sourcePoint" />
            <mxPoint x="420" y="100" as="targetPoint" />
          </mxGeometry>
        </mxCell>
        <mxCell id="cYRIdMAdLQL1WSYvsz5K-32" value="" style="sketch=0;points=[[0,0,0],[0.25,0,0],[0.5,0,0],[0.75,0,0],[1,0,0],[0,1,0],[0.25,1,0],[0.5,1,0],[0.75,1,0],[1,1,0],[0,0.25,0],[0,0.5,0],[0,0.75,0],[1,0.25,0],[1,0.5,0],[1,0.75,0]];outlineConnect=0;fontColor=#232F3E;fillColor=#ED7100;strokeColor=#ffffff;dashed=0;verticalLabelPosition=bottom;verticalAlign=top;align=center;html=1;fontSize=12;fontStyle=0;aspect=fixed;shape=mxgraph.aws4.resourceIcon;resIcon=mxgraph.aws4.lambda;" vertex="1" parent="cYRIdMAdLQL1WSYvsz5K-1">
          <mxGeometry x="710" y="52" width="78" height="78" as="geometry" />
        </mxCell>
        <mxCell id="cYRIdMAdLQL1WSYvsz5K-33" value="" style="edgeStyle=orthogonalEdgeStyle;html=1;endArrow=openThin;elbow=vertical;startArrow=none;endFill=0;strokeColor=#545B64;rounded=0;exitX=1;exitY=0.5;exitDx=0;exitDy=0;exitPerimeter=0;" edge="1" parent="cYRIdMAdLQL1WSYvsz5K-1" source="cYRIdMAdLQL1WSYvsz5K-29" target="cYRIdMAdLQL1WSYvsz5K-32">
          <mxGeometry width="100" relative="1" as="geometry">
            <mxPoint x="400" y="130" as="sourcePoint" />
            <mxPoint x="500" y="130" as="targetPoint" />
            <Array as="points">
              <mxPoint x="680" y="89" />
              <mxPoint x="680" y="89" />
            </Array>
          </mxGeometry>
        </mxCell>
        <mxCell id="cYRIdMAdLQL1WSYvsz5K-34" value="Trigger:&#xa;Post-Confirmation Lambda" style="text;whiteSpace=wrap;" vertex="1" parent="cYRIdMAdLQL1WSYvsz5K-1">
          <mxGeometry x="556.5" y="50" width="180" height="40" as="geometry" />
        </mxCell>
        <mxCell id="cYRIdMAdLQL1WSYvsz5K-35" value="TaskFlow-AutoAssignGroup" style="text;whiteSpace=wrap;" vertex="1" parent="cYRIdMAdLQL1WSYvsz5K-1">
          <mxGeometry x="669" y="130" width="160" height="40" as="geometry" />
        </mxCell>
        <mxCell id="cYRIdMAdLQL1WSYvsz5K-36" value="Amazon API Gateway" style="sketch=0;outlineConnect=0;fontColor=#232F3E;gradientColor=none;strokeColor=#ffffff;fillColor=#232F3E;dashed=0;verticalLabelPosition=middle;verticalAlign=bottom;align=center;html=1;whiteSpace=wrap;fontSize=10;fontStyle=1;spacing=3;shape=mxgraph.aws4.productIcon;prIcon=mxgraph.aws4.api_gateway;" vertex="1" parent="cYRIdMAdLQL1WSYvsz5K-1">
          <mxGeometry x="280" y="250" width="80" height="110" as="geometry" />
        </mxCell>
        <mxCell id="cYRIdMAdLQL1WSYvsz5K-38" value="Call an API" style="text;strokeColor=none;align=center;fillColor=none;html=1;verticalAlign=middle;whiteSpace=wrap;rounded=0;" vertex="1" parent="cYRIdMAdLQL1WSYvsz5K-1">
          <mxGeometry x="190.71" y="298" width="80" height="30" as="geometry" />
        </mxCell>
        <UserObject label="TaskFlow-TaskHandler&lt;div&gt;&lt;br&gt;&lt;/div&gt;" link="TaskFlow-TaskHandler.py" id="cYRIdMAdLQL1WSYvsz5K-40">
          <mxCell style="sketch=0;points=[[0,0,0],[0.25,0,0],[0.5,0,0],[0.75,0,0],[1,0,0],[0,1,0],[0.25,1,0],[0.5,1,0],[0.75,1,0],[1,1,0],[0,0.25,0],[0,0.5,0],[0,0.75,0],[1,0.25,0],[1,0.5,0],[1,0.75,0]];outlineConnect=0;fontColor=#232F3E;fillColor=#ED7100;strokeColor=#ffffff;dashed=0;verticalLabelPosition=bottom;verticalAlign=top;align=center;html=1;fontSize=12;fontStyle=0;aspect=fixed;shape=mxgraph.aws4.resourceIcon;resIcon=mxgraph.aws4.lambda;" vertex="1" parent="cYRIdMAdLQL1WSYvsz5K-1">
            <mxGeometry x="520" y="250" width="78" height="78" as="geometry" />
          </mxCell>
        </UserObject>
        <mxCell id="cYRIdMAdLQL1WSYvsz5K-41" value="" style="edgeStyle=orthogonalEdgeStyle;html=1;endArrow=block;elbow=vertical;startArrow=block;startFill=1;endFill=1;strokeColor=#545B64;rounded=0;" edge="1" parent="cYRIdMAdLQL1WSYvsz5K-1" source="cYRIdMAdLQL1WSYvsz5K-36" target="cYRIdMAdLQL1WSYvsz5K-40">
          <mxGeometry width="100" relative="1" as="geometry">
            <mxPoint x="410" y="290" as="sourcePoint" />
            <mxPoint x="510" y="290" as="targetPoint" />
            <Array as="points">
              <mxPoint x="480" y="290" />
              <mxPoint x="480" y="290" />
            </Array>
          </mxGeometry>
        </mxCell>
        <mxCell id="cYRIdMAdLQL1WSYvsz5K-43" value="/tasks/{id}&#xa;PUT,DEL" style="text;whiteSpace=wrap;" vertex="1" parent="cYRIdMAdLQL1WSYvsz5K-1">
          <mxGeometry x="419" y="250" width="71" height="40" as="geometry" />
        </mxCell>
        <UserObject label="TaskFlow-TaskHandler&lt;div&gt;&lt;br&gt;&lt;/div&gt;" link="TaskFlow-TaskHandler.py" id="cYRIdMAdLQL1WSYvsz5K-44">
          <mxCell style="sketch=0;points=[[0,0,0],[0.25,0,0],[0.5,0,0],[0.75,0,0],[1,0,0],[0,1,0],[0.25,1,0],[0.5,1,0],[0.75,1,0],[1,1,0],[0,0.25,0],[0,0.5,0],[0,0.75,0],[1,0.25,0],[1,0.5,0],[1,0.75,0]];outlineConnect=0;fontColor=#232F3E;fillColor=#ED7100;strokeColor=#ffffff;dashed=0;verticalLabelPosition=bottom;verticalAlign=top;align=center;html=1;fontSize=12;fontStyle=0;aspect=fixed;shape=mxgraph.aws4.resourceIcon;resIcon=mxgraph.aws4.lambda;" vertex="1" parent="cYRIdMAdLQL1WSYvsz5K-1">
            <mxGeometry x="520" y="370" width="78" height="78" as="geometry" />
          </mxCell>
        </UserObject>
        <mxCell id="cYRIdMAdLQL1WSYvsz5K-45" value="" style="edgeStyle=orthogonalEdgeStyle;html=1;endArrow=block;elbow=vertical;startArrow=block;startFill=1;endFill=1;strokeColor=#545B64;rounded=0;entryX=0;entryY=0.5;entryDx=0;entryDy=0;entryPerimeter=0;" edge="1" parent="cYRIdMAdLQL1WSYvsz5K-1" source="cYRIdMAdLQL1WSYvsz5K-36" target="cYRIdMAdLQL1WSYvsz5K-44">
          <mxGeometry width="100" relative="1" as="geometry">
            <mxPoint x="395" y="408.76" as="sourcePoint" />
            <mxPoint x="495" y="408.76" as="targetPoint" />
            <Array as="points">
              <mxPoint x="410" y="290" />
              <mxPoint x="410" y="409" />
            </Array>
          </mxGeometry>
        </mxCell>
        <mxCell id="cYRIdMAdLQL1WSYvsz5K-46" value="/tasks&#xa;GET,POST" style="text;whiteSpace=wrap;" vertex="1" parent="cYRIdMAdLQL1WSYvsz5K-1">
          <mxGeometry x="434" y="370" width="60" height="40" as="geometry" />
        </mxCell>
        <UserObject label="TaskFlow-TaskHandler&lt;div&gt;&lt;br&gt;&lt;/div&gt;" link="TaskFlow-TaskHandler.py" id="cYRIdMAdLQL1WSYvsz5K-47">
          <mxCell style="sketch=0;points=[[0,0,0],[0.25,0,0],[0.5,0,0],[0.75,0,0],[1,0,0],[0,1,0],[0.25,1,0],[0.5,1,0],[0.75,1,0],[1,1,0],[0,0.25,0],[0,0.5,0],[0,0.75,0],[1,0.25,0],[1,0.5,0],[1,0.75,0]];outlineConnect=0;fontColor=#232F3E;fillColor=#ED7100;strokeColor=#ffffff;dashed=0;verticalLabelPosition=bottom;verticalAlign=top;align=center;html=1;fontSize=12;fontStyle=0;aspect=fixed;shape=mxgraph.aws4.resourceIcon;resIcon=mxgraph.aws4.lambda;" vertex="1" parent="cYRIdMAdLQL1WSYvsz5K-1">
            <mxGeometry x="520" y="490" width="78" height="78" as="geometry" />
          </mxCell>
        </UserObject>
        <mxCell id="cYRIdMAdLQL1WSYvsz5K-50" value="" style="edgeStyle=orthogonalEdgeStyle;html=1;endArrow=block;elbow=vertical;startArrow=block;startFill=1;endFill=1;strokeColor=#545B64;rounded=0;entryX=0;entryY=0.5;entryDx=0;entryDy=0;entryPerimeter=0;" edge="1" parent="cYRIdMAdLQL1WSYvsz5K-1" source="cYRIdMAdLQL1WSYvsz5K-36" target="cYRIdMAdLQL1WSYvsz5K-47">
          <mxGeometry width="100" relative="1" as="geometry">
            <mxPoint x="380" y="450" as="sourcePoint" />
            <mxPoint x="480" y="450" as="targetPoint" />
            <Array as="points">
              <mxPoint x="410" y="290" />
              <mxPoint x="410" y="529" />
            </Array>
          </mxGeometry>
        </mxCell>
        <mxCell id="cYRIdMAdLQL1WSYvsz5K-51" value="/tasks/bulk-import&#xa;POST" style="text;whiteSpace=wrap;" vertex="1" parent="cYRIdMAdLQL1WSYvsz5K-1">
          <mxGeometry x="415.5" y="490" width="97" height="40" as="geometry" />
        </mxCell>
        <UserObject label="&lt;div&gt;TaskFlow-Analytics&lt;/div&gt;" link="TaskFlow-TaskHandler.py" id="cYRIdMAdLQL1WSYvsz5K-52">
          <mxCell style="sketch=0;points=[[0,0,0],[0.25,0,0],[0.5,0,0],[0.75,0,0],[1,0,0],[0,1,0],[0.25,1,0],[0.5,1,0],[0.75,1,0],[1,1,0],[0,0.25,0],[0,0.5,0],[0,0.75,0],[1,0.25,0],[1,0.5,0],[1,0.75,0]];outlineConnect=0;fontColor=#232F3E;fillColor=#ED7100;strokeColor=#ffffff;dashed=0;verticalLabelPosition=bottom;verticalAlign=top;align=center;html=1;fontSize=12;fontStyle=0;aspect=fixed;shape=mxgraph.aws4.resourceIcon;resIcon=mxgraph.aws4.lambda;" vertex="1" parent="cYRIdMAdLQL1WSYvsz5K-1">
            <mxGeometry x="520" y="610" width="78" height="78" as="geometry" />
          </mxCell>
        </UserObject>
        <mxCell id="cYRIdMAdLQL1WSYvsz5K-53" value="" style="edgeStyle=orthogonalEdgeStyle;htmDepartman barl=1;endArrow=open;elbow=vertical;startArrow=open;startFill=0;endFill=0;strokeColor=#545B64;rounded=0;entryX=0;entryY=0.5;entryDx=0;entryDy=0;entryPerimeter=0;" edge="1" parent="cYRIdMAdLQL1WSYvsz5K-1" source="cYRIdMAdLQL1WSYvsz5K-36" target="cYRIdMAdLQL1WSYvsz5K-52">
          <mxGeometry width="100" relative="1" as="geometry">
            <mxPoint x="350" y="470" as="sourcePoint" />
            <mxPoint x="450" y="470" as="targetPoint" />
            <Array as="points">
              <mxPoint x="410" y="290" />
              <mxPoint x="410" y="649" />
            </Array>
          </mxGeometry>
        </mxCell>
        <mxCell id="cYRIdMAdLQL1WSYvsz5K-54" value="/admin/analytics&#xa;GET" style="text;whiteSpace=wrap;" vertex="1" parent="cYRIdMAdLQL1WSYvsz5K-1">
          <mxGeometry x="418" y="600" width="94.5" height="40" as="geometry" />
        </mxCell>
        <mxCell id="cYRIdMAdLQL1WSYvsz5K-55" value="Amazon CloudWatch" style="sketch=0;outlineConnect=0;fontColor=#232F3E;gradientColor=none;strokeColor=#ffffff;fillColor=#232F3E;dashed=0;verticalLabelPosition=middle;verticalAlign=bottom;align=center;html=1;whiteSpace=wrap;fontSize=10;fontStyle=1;spacing=3;shape=mxgraph.aws4.productIcon;prIcon=mxgraph.aws4.cloudwatch;" vertex="1" parent="cYRIdMAdLQL1WSYvsz5K-1">
          <mxGeometry x="90" y="688" width="80" height="110" as="geometry" />
        </mxCell>
        <mxCell id="cYRIdMAdLQL1WSYvsz5K-56" value="AWS&#xa;CloudTrail" style="sketch=0;outlineConnect=0;fontColor=#232F3E;gradientColor=none;strokeColor=#ffffff;fillColor=#232F3E;dashed=0;verticalLabelPosition=middle;verticalAlign=bottom;align=center;html=1;whiteSpace=wrap;fontSize=10;fontStyle=1;spacing=3;shape=mxgraph.aws4.productIcon;prIcon=mxgraph.aws4.cloudtrail;" vertex="1" parent="cYRIdMAdLQL1WSYvsz5K-1">
          <mxGeometry x="200" y="688" width="80" height="110" as="geometry" />
        </mxCell>
        <mxCell id="cYRIdMAdLQL1WSYvsz5K-58" value="" style="sketch=0;points=[[0,0,0],[0.25,0,0],[0.5,0,0],[0.75,0,0],[1,0,0],[0,1,0],[0.25,1,0],[0.5,1,0],[0.75,1,0],[1,1,0],[0,0.25,0],[0,0.5,0],[0,0.75,0],[1,0.25,0],[1,0.5,0],[1,0.75,0]];outlineConnect=0;fontColor=#232F3E;fillColor=#C925D1;strokeColor=#ffffff;dashed=0;verticalLabelPosition=bottom;verticalAlign=top;align=center;html=1;fontSize=12;fontStyle=0;aspect=fixed;shape=mxgraph.aws4.resourceIcon;resIcon=mxgraph.aws4.dynamodb;" vertex="1" parent="cYRIdMAdLQL1WSYvsz5K-1">
          <mxGeometry x="810" y="188.58" width="78" height="78" as="geometry" />
        </mxCell>
        <mxCell id="cYRIdMAdLQL1WSYvsz5K-59" value="DynamoDB: TaskFlow-Tasks" style="text;whiteSpace=wrap;" vertex="1" parent="cYRIdMAdLQL1WSYvsz5K-1">
          <mxGeometry x="810" y="266.58" width="90" height="40" as="geometry" />
        </mxCell>
        <mxCell id="cYRIdMAdLQL1WSYvsz5K-60" value="" style="edgeStyle=orthogonalEdgeStyle;html=1;endArrow=openThin;elbow=vertical;startArrow=none;endFill=0;strokeColor=#545B64;rounded=0;" edge="1" parent="cYRIdMAdLQL1WSYvsz5K-1" source="cYRIdMAdLQL1WSYvsz5K-40" target="cYRIdMAdLQL1WSYvsz5K-58">
          <mxGeometry width="100" relative="1" as="geometry">
            <mxPoint x="570" y="260" as="sourcePoint" />
            <mxPoint x="670" y="260" as="targetPoint" />
          </mxGeometry>
        </mxCell>
        <mxCell id="cYRIdMAdLQL1WSYvsz5K-62" value="" style="edgeStyle=orthogonalEdgeStyle;htmDepartman barl=1;endArrow=open;elbow=vertical;startArrow=open;startFill=0;endFill=0;strokeColor=#545B64;rounded=0;" edge="1" parent="cYRIdMAdLQL1WSYvsz5K-1">
          <mxGeometry width="100" relative="1" as="geometry">
            <mxPoint x="598" y="380" as="sourcePoint" />
            <mxPoint x="810" y="240" as="targetPoint" />
            <Array as="points">
              <mxPoint x="760" y="380" />
              <mxPoint x="760" y="240" />
            </Array>
          </mxGeometry>
        </mxCell>
        <mxCell id="cYRIdMAdLQL1WSYvsz5K-64" value="" style="sketch=0;outlineConnect=0;fontColor=#232F3E;gradientColor=none;fillColor=#E7157B;strokeColor=none;dashed=0;verticalLabelPosition=bottom;verticalAlign=top;align=center;html=1;fontSize=12;fontStyle=0;aspect=fixed;pointerEvents=1;shape=mxgraph.aws4.parameter_store;" vertex="1" parent="cYRIdMAdLQL1WSYvsz5K-1">
          <mxGeometry x="829" y="330" width="75" height="78" as="geometry" />
        </mxCell>
        <mxCell id="cYRIdMAdLQL1WSYvsz5K-65" value="Parameter Store" style="text;strokeColor=none;align=center;fillColor=none;html=1;verticalAlign=middle;whiteSpace=wrap;rounded=0;" vertex="1" parent="cYRIdMAdLQL1WSYvsz5K-1">
          <mxGeometry x="832.5" y="410" width="60" height="30" as="geometry" />
        </mxCell>
        <mxCell id="cYRIdMAdLQL1WSYvsz5K-67" value="" style="edgeStyle=orthogonalEdgeStyle;htmDepartman barl=1;endArrow=open;elbow=vertical;startArrow=open;startFill=0;endFill=0;strokeColor=#545B64;rounded=0;" edge="1" parent="cYRIdMAdLQL1WSYvsz5K-1" source="cYRIdMAdLQL1WSYvsz5K-44" target="cYRIdMAdLQL1WSYvsz5K-64">
          <mxGeometry width="100" relative="1" as="geometry">
            <mxPoint x="570" y="330" as="sourcePoint" />
            <mxPoint x="670" y="330" as="targetPoint" />
            <Array as="points">
              <mxPoint x="650" y="390" />
              <mxPoint x="650" y="390" />
            </Array>
          </mxGeometry>
        </mxCell>
        <mxCell id="cYRIdMAdLQL1WSYvsz5K-68" value="" style="sketch=0;points=[[0,0,0],[0.25,0,0],[0.5,0,0],[0.75,0,0],[1,0,0],[0,1,0],[0.25,1,0],[0.5,1,0],[0.75,1,0],[1,1,0],[0,0.25,0],[0,0.5,0],[0,0.75,0],[1,0.25,0],[1,0.5,0],[1,0.75,0]];outlineConnect=0;fontColor=#232F3E;fillColor=#E7157B;strokeColor=#ffffff;dashed=0;verticalLabelPosition=bottom;verticalAlign=top;align=center;html=1;fontSize=12;fontStyle=0;aspect=fixed;shape=mxgraph.aws4.resourceIcon;resIcon=mxgraph.aws4.sns;" vertex="1" parent="cYRIdMAdLQL1WSYvsz5K-1">
          <mxGeometry x="816" y="452" width="78" height="78" as="geometry" />
        </mxCell>
        <mxCell id="cYRIdMAdLQL1WSYvsz5K-69" value="TaskFlow-Notifications" style="text;whiteSpace=wrap;" vertex="1" parent="cYRIdMAdLQL1WSYvsz5K-1">
          <mxGeometry x="800" y="530" width="130" height="40" as="geometry" />
        </mxCell>
        <mxCell id="cYRIdMAdLQL1WSYvsz5K-70" value="" style="edgeStyle=orthogonalEdgeStyle;html=1;endArrow=openThin;elbow=vertical;startArrow=none;endFill=0;strokeColor=#545B64;rounded=0;entryX=0;entryY=0.5;entryDx=0;entryDy=0;entryPerimeter=0;" edge="1" parent="cYRIdMAdLQL1WSYvsz5K-1" source="cYRIdMAdLQL1WSYvsz5K-44" target="cYRIdMAdLQL1WSYvsz5K-68">
          <mxGeometry width="100" relative="1" as="geometry">
            <mxPoint x="650" y="500" as="sourcePoint" />
            <mxPoint x="750" y="500" as="targetPoint" />
            <Array as="points">
              <mxPoint x="707" y="420" />
              <mxPoint x="707" y="491" />
            </Array>
          </mxGeometry>
        </mxCell>
        <mxCell id="cYRIdMAdLQL1WSYvsz5K-71" value="" style="edgeStyle=orthogonalEdgeStyle;html=1;endArrow=block;elbow=vertical;startArrow=block;startFill=1;endFill=1;strokeColor=#545B64;rounded=0;exitX=1;exitY=0.25;exitDx=0;exitDy=0;exitPerimeter=0;" edge="1" parent="cYRIdMAdLQL1WSYvsz5K-1" source="cYRIdMAdLQL1WSYvsz5K-47" target="cYRIdMAdLQL1WSYvsz5K-64">
          <mxGeometry width="100" relative="1" as="geometry">
            <mxPoint x="610" y="520" as="sourcePoint" />
            <mxPoint x="710" y="520" as="targetPoint" />
            <Array as="points">
              <mxPoint x="670" y="510" />
              <mxPoint x="670" y="390" />
            </Array>
          </mxGeometry>
        </mxCell>
        <mxCell id="cYRIdMAdLQL1WSYvsz5K-72" value="" style="sketch=0;points=[[0,0,0],[0.25,0,0],[0.5,0,0],[0.75,0,0],[1,0,0],[0,1,0],[0.25,1,0],[0.5,1,0],[0.75,1,0],[1,1,0],[0,0.25,0],[0,0.5,0],[0,0.75,0],[1,0.25,0],[1,0.5,0],[1,0.75,0]];outlineConnect=0;fontColor=#232F3E;fillColor=#E7157B;strokeColor=#ffffff;dashed=0;verticalLabelPosition=bottom;verticalAlign=top;align=center;html=1;fontSize=12;fontStyle=0;aspect=fixed;shape=mxgraph.aws4.resourceIcon;resIcon=mxgraph.aws4.sqs;" vertex="1" parent="cYRIdMAdLQL1WSYvsz5K-1">
          <mxGeometry x="816" y="570" width="78" height="78" as="geometry" />
        </mxCell>
        <mxCell id="cYRIdMAdLQL1WSYvsz5K-73" value="TaskFlow-ProcessingQueue" style="text;whiteSpace=wrap;" vertex="1" parent="cYRIdMAdLQL1WSYvsz5K-1">
          <mxGeometry x="786.5" y="650" width="152" height="40" as="geometry" />
        </mxCell>
        <mxCell id="cYRIdMAdLQL1WSYvsz5K-76" value="" style="edgeStyle=orthogonalEdgeStyle;html=1;endArrow=openThin;elbow=vertical;startArrow=none;endFill=0;strokeColor=#545B64;rounded=0;" edge="1" parent="cYRIdMAdLQL1WSYvsz5K-1" source="cYRIdMAdLQL1WSYvsz5K-47" target="cYRIdMAdLQL1WSYvsz5K-72">
          <mxGeometry width="100" relative="1" as="geometry">
            <mxPoint x="598" y="550" as="sourcePoint" />
            <mxPoint x="698" y="528.74" as="targetPoint" />
            <Array as="points">
              <mxPoint x="855" y="560" />
            </Array>
          </mxGeometry>
        </mxCell>
        <UserObject label="&lt;div&gt;TaskFlow-SQSProcessor&lt;/div&gt;" link="TaskFlow-TaskHandler.py" id="cYRIdMAdLQL1WSYvsz5K-78">
          <mxCell style="sketch=0;points=[[0,0,0],[0.25,0,0],[0.5,0,0],[0.75,0,0],[1,0,0],[0,1,0],[0.25,1,0],[0.5,1,0],[0.75,1,0],[1,1,0],[0,0.25,0],[0,0.5,0],[0,0.75,0],[1,0.25,0],[1,0.5,0],[1,0.75,0]];outlineConnect=0;fontColor=#232F3E;fillColor=#ED7100;strokeColor=#ffffff;dashed=0;verticalLabelPosition=bottom;verticalAlign=top;align=center;html=1;fontSize=12;fontStyle=0;aspect=fixed;shape=mxgraph.aws4.resourceIcon;resIcon=mxgraph.aws4.lambda;" vertex="1" parent="cYRIdMAdLQL1WSYvsz5K-1">
            <mxGeometry x="990" y="570" width="78" height="78" as="geometry" />
          </mxCell>
        </UserObject>
        <mxCell id="cYRIdMAdLQL1WSYvsz5K-81" value="" style="edgeStyle=orthogonalEdgeStyle;html=1;endArrow=openThin;elbow=vertical;startArrow=none;endFill=0;strokeColor=#545B64;rounded=0;" edge="1" parent="cYRIdMAdLQL1WSYvsz5K-1" source="cYRIdMAdLQL1WSYvsz5K-72" target="cYRIdMAdLQL1WSYvsz5K-78">
          <mxGeometry width="100" relative="1" as="geometry">
            <mxPoint x="970" y="600" as="sourcePoint" />
            <mxPoint x="1070" y="600" as="targetPoint" />
            <Array as="points">
              <mxPoint x="940" y="610" />
              <mxPoint x="940" y="610" />
            </Array>
          </mxGeometry>
        </mxCell>
        <mxCell id="cYRIdMAdLQL1WSYvsz5K-83" value="" style="edgeStyle=orthogonalEdgeStyle;html=1;endArrow=block;elbow=vertical;startArrow=block;startFill=1;endFill=1;strokeColor=#545B64;rounded=0;" edge="1" parent="cYRIdMAdLQL1WSYvsz5K-1" source="cYRIdMAdLQL1WSYvsz5K-58" target="cYRIdMAdLQL1WSYvsz5K-78">
          <mxGeometry width="100" relative="1" as="geometry">
            <mxPoint x="740" y="330" as="sourcePoint" />
            <mxPoint x="840" y="330" as="targetPoint" />
            <Array as="points">
              <mxPoint x="1029" y="228" />
            </Array>
          </mxGeometry>
        </mxCell>
        <mxCell id="cYRIdMAdLQL1WSYvsz5K-84" value="" style="edgeStyle=orthogonalEdgeStyle;html=1;endArrow=openThin;elbow=vertical;startArrow=none;endFill=0;strokeColor=#545B64;rounded=0;exitX=1;exitY=0.75;exitDx=0;exitDy=0;exitPerimeter=0;" edge="1" parent="cYRIdMAdLQL1WSYvsz5K-1" source="cYRIdMAdLQL1WSYvsz5K-47" target="cYRIdMAdLQL1WSYvsz5K-68">
          <mxGeometry width="100" relative="1" as="geometry">
            <mxPoint x="620" y="544.52" as="sourcePoint" />
            <mxPoint x="720" y="544.52" as="targetPoint" />
          </mxGeometry>
        </mxCell>
        <mxCell id="cYRIdMAdLQL1WSYvsz5K-85" value="" style="sketch=0;points=[[0,0,0],[0.25,0,0],[0.5,0,0],[0.75,0,0],[1,0,0],[0,1,0],[0.25,1,0],[0.5,1,0],[0.75,1,0],[1,1,0],[0,0.25,0],[0,0.5,0],[0,0.75,0],[1,0.25,0],[1,0.5,0],[1,0.75,0]];outlineConnect=0;fontColor=#232F3E;fillColor=#C925D1;strokeColor=#ffffff;dashed=0;verticalLabelPosition=bottom;verticalAlign=top;align=center;html=1;fontSize=12;fontStyle=0;aspect=fixed;shape=mxgraph.aws4.resourceIcon;resIcon=mxgraph.aws4.dynamodb;" vertex="1" parent="cYRIdMAdLQL1WSYvsz5K-1">
          <mxGeometry x="938.5" y="752" width="78" height="78" as="geometry" />
        </mxCell>
        <mxCell id="cYRIdMAdLQL1WSYvsz5K-86" value="DynamoDB: TaskFlow-Analytics" style="text;whiteSpace=wrap;" vertex="1" parent="cYRIdMAdLQL1WSYvsz5K-1">
          <mxGeometry x="930" y="830" width="110" height="40" as="geometry" />
        </mxCell>
        <mxCell id="cYRIdMAdLQL1WSYvsz5K-87" value="" style="sketch=0;points=[[0,0,0],[0.25,0,0],[0.5,0,0],[0.75,0,0],[1,0,0],[0,1,0],[0.25,1,0],[0.5,1,0],[0.75,1,0],[1,1,0],[0,0.25,0],[0,0.5,0],[0,0.75,0],[1,0.25,0],[1,0.5,0],[1,0.75,0]];outlineConnect=0;fontColor=#232F3E;fillColor=#E7157B;strokeColor=#ffffff;dashed=0;verticalLabelPosition=bottom;verticalAlign=top;align=center;html=1;fontSize=12;fontStyle=0;aspect=fixed;shape=mxgraph.aws4.resourceIcon;resIcon=mxgraph.aws4.eventbridge;" vertex="1" parent="cYRIdMAdLQL1WSYvsz5K-1">
          <mxGeometry x="520" y="752" width="78" height="78" as="geometry" />
        </mxCell>
        <mxCell id="cYRIdMAdLQL1WSYvsz5K-88" value="EventBridge (Daily):&#xa;TaskFlow-DailyReport" style="text;whiteSpace=wrap;" vertex="1" parent="cYRIdMAdLQL1WSYvsz5K-1">
          <mxGeometry x="512.5" y="830" width="121" height="40" as="geometry" />
        </mxCell>
        <mxCell id="cYRIdMAdLQL1WSYvsz5K-89" value="" style="edgeStyle=orthogonalEdgeStyle;html=1;endArrow=block;elbow=vertical;startArrow=block;startFill=1;endFill=1;strokeColor=#545B64;rounded=0;" edge="1" parent="cYRIdMAdLQL1WSYvsz5K-1" target="cYRIdMAdLQL1WSYvsz5K-58">
          <mxGeometry width="100" relative="1" as="geometry">
            <mxPoint x="598" y="680" as="sourcePoint" />
            <mxPoint x="820" y="700" as="targetPoint" />
            <Array as="points">
              <mxPoint x="598" y="680" />
              <mxPoint x="1110" y="680" />
              <mxPoint x="1110" y="228" />
            </Array>
          </mxGeometry>
        </mxCell>
        <UserObject label="&lt;div&gt;TaskFlow-Analytics&lt;/div&gt;" link="TaskFlow-TaskHandler.py" id="cYRIdMAdLQL1WSYvsz5K-90">
          <mxCell style="sketch=0;points=[[0,0,0],[0.25,0,0],[0.5,0,0],[0.75,0,0],[1,0,0],[0,1,0],[0.25,1,0],[0.5,1,0],[0.75,1,0],[1,1,0],[0,0.25,0],[0,0.5,0],[0,0.75,0],[1,0.25,0],[1,0.5,0],[1,0.75,0]];outlineConnect=0;fontColor=#232F3E;fillColor=#ED7100;strokeColor=#ffffff;dashed=0;verticalLabelPosition=bottom;verticalAlign=top;align=center;html=1;fontSize=12;fontStyle=0;aspect=fixed;shape=mxgraph.aws4.resourceIcon;resIcon=mxgraph.aws4.lambda;" vertex="1" parent="cYRIdMAdLQL1WSYvsz5K-1">
            <mxGeometry x="732" y="752" width="78" height="78" as="geometry" />
          </mxCell>
        </UserObject>
        <mxCell id="cYRIdMAdLQL1WSYvsz5K-91" value="" style="edgeStyle=orthogonalEdgeStyle;html=1;endArrow=openThin;elbow=vertical;startArrow=none;endFill=0;strokeColor=#545B64;rounded=0;entryX=0;entryY=0.5;entryDx=0;entryDy=0;entryPerimeter=0;" edge="1" parent="cYRIdMAdLQL1WSYvsz5K-1" source="cYRIdMAdLQL1WSYvsz5K-87" target="cYRIdMAdLQL1WSYvsz5K-90">
          <mxGeometry width="100" relative="1" as="geometry">
            <mxPoint x="670" y="760" as="sourcePoint" />
            <mxPoint x="770" y="760" as="targetPoint" />
          </mxGeometry>
        </mxCell>
        <mxCell id="cYRIdMAdLQL1WSYvsz5K-92" value="" style="edgeStyle=orthogonalEdgeStyle;html=1;endArrow=block;elbow=vertical;startArrow=block;startFill=1;endFill=1;strokeColor=#545B64;rounded=0;entryX=1;entryY=0.25;entryDx=0;entryDy=0;entryPerimeter=0;" edge="1" parent="cYRIdMAdLQL1WSYvsz5K-1" source="cYRIdMAdLQL1WSYvsz5K-90" target="cYRIdMAdLQL1WSYvsz5K-58">
          <mxGeometry width="100" relative="1" as="geometry">
            <mxPoint x="920" y="650" as="sourcePoint" />
            <mxPoint x="1020" y="650" as="targetPoint" />
            <Array as="points">
              <mxPoint x="771" y="720" />
              <mxPoint x="1170" y="720" />
              <mxPoint x="1170" y="208" />
            </Array>
          </mxGeometry>
        </mxCell>
        <mxCell id="cYRIdMAdLQL1WSYvsz5K-93" value="" style="edgeStyle=orthogonalEdgeStyle;html=1;endArrow=block;elbow=vertical;startArrow=block;startFill=1;endFill=1;strokeColor=#545B64;rounded=0;exitX=1;exitY=0.5;exitDx=0;exitDy=0;exitPerimeter=0;" edge="1" parent="cYRIdMAdLQL1WSYvsz5K-1" source="cYRIdMAdLQL1WSYvsz5K-90" target="cYRIdMAdLQL1WSYvsz5K-85">
          <mxGeometry width="100" relative="1" as="geometry">
            <mxPoint x="920" y="650" as="sourcePoint" />
            <mxPoint x="1020" y="650" as="targetPoint" />
          </mxGeometry>
        </mxCell>
        <mxCell id="cYRIdMAdLQL1WSYvsz5K-95" value="Daily scheduling" style="text;whiteSpace=wrap;fillColor=#fff2cc;strokeColor=#d6b656;" vertex="1" parent="cYRIdMAdLQL1WSYvsz5K-1">
          <mxGeometry x="514" y="725" width="90" height="27" as="geometry" />
        </mxCell>
        <mxCell id="cYRIdMAdLQL1WSYvsz5K-96" value="" style="sketch=0;points=[[0,0,0],[0.25,0,0],[0.5,0,0],[0.75,0,0],[1,0,0],[0,1,0],[0.25,1,0],[0.5,1,0],[0.75,1,0],[1,1,0],[0,0.25,0],[0,0.5,0],[0,0.75,0],[1,0.25,0],[1,0.5,0],[1,0.75,0]];outlineConnect=0;fontColor=#232F3E;fillColor=#7AA116;strokeColor=#ffffff;dashed=0;verticalLabelPosition=bottom;verticalAlign=top;align=center;html=1;fontSize=12;fontStyle=0;aspect=fixed;shape=mxgraph.aws4.resourceIcon;resIcon=mxgraph.aws4.s3;" vertex="1" parent="cYRIdMAdLQL1WSYvsz5K-1">
          <mxGeometry x="149.99999999999997" y="520" width="61.42" height="61.42" as="geometry" />
        </mxCell>
        <mxCell id="cYRIdMAdLQL1WSYvsz5K-98" value="taskflow-website-20" style="text;whiteSpace=wrap;" vertex="1" parent="cYRIdMAdLQL1WSYvsz5K-1">
          <mxGeometry x="79.71" y="250" width="110.29" height="30" as="geometry" />
        </mxCell>
        <mxCell id="cYRIdMAdLQL1WSYvsz5K-100" value="" style="edgeStyle=orthogonalEdgeStyle;html=1;endArrow=openThin;elbow=vertical;startArrow=none;endFill=0;strokeColor=#545B64;rounded=0;" edge="1" parent="cYRIdMAdLQL1WSYvsz5K-1" source="cYRIdMAdLQL1WSYvsz5K-56" target="cYRIdMAdLQL1WSYvsz5K-96">
          <mxGeometry width="100" relative="1" as="geometry">
            <mxPoint x="230" y="610" as="sourcePoint" />
            <mxPoint x="330" y="610" as="targetPoint" />
            <Array as="points">
              <mxPoint x="260" y="550" />
            </Array>
          </mxGeometry>
        </mxCell>
        <mxCell id="cYRIdMAdLQL1WSYvsz5K-102" value="aws-cloudtrail-logs-29" style="text;whiteSpace=wrap;" vertex="1" parent="cYRIdMAdLQL1WSYvsz5K-1">
          <mxGeometry x="130" y="581.42" width="124.29" height="40" as="geometry" />
        </mxCell>
        <mxCell id="cYRIdMAdLQL1WSYvsz5K-2" value="users" style="sketch=0;outlineConnect=0;gradientColor=none;fontColor=#545B64;strokeColor=none;fillColor=#879196;dashed=0;verticalLabelPosition=bottom;verticalAlign=top;align=center;html=1;fontSize=12;fontStyle=0;aspect=fixed;shape=mxgraph.aws4.illustration_users;pointerEvents=1" vertex="1" parent="1">
          <mxGeometry x="190" y="-140" width="40" height="40" as="geometry" />
        </mxCell>
        <mxCell id="cYRIdMAdLQL1WSYvsz5K-4" value="" style="sketch=0;verticalLabelPosition=bottom;sketch=0;aspect=fixed;html=1;verticalAlign=top;strokeColor=none;fillColor=#000000;align=center;outlineConnect=0;pointerEvents=1;shape=mxgraph.citrix2.laptop;" vertex="1" parent="1">
          <mxGeometry x="320" y="-130" width="49.99" height="38.57" as="geometry" />
        </mxCell>
        <mxCell id="cYRIdMAdLQL1WSYvsz5K-5" value="" style="edgeStyle=orthogonalEdgeStyle;html=1;endArrow=openThin;elbow=vertical;startArrow=none;endFill=0;strokeColor=#545B64;rounded=0;" edge="1" parent="1">
          <mxGeometry width="100" relative="1" as="geometry">
            <mxPoint x="220" y="-111.02" as="sourcePoint" />
            <mxPoint x="320" y="-111.02" as="targetPoint" />
          </mxGeometry>
        </mxCell>
        <mxCell id="cYRIdMAdLQL1WSYvsz5K-8" value="" style="edgeStyle=orthogonalEdgeStyle;html=1;endArrow=block;elbow=vertical;startArrow=block;startFill=1;endFill=1;strokeColor=#545B64;rounded=0;entryX=0;entryY=0.5;entryDx=0;entryDy=0;entryPerimeter=0;" edge="1" parent="1" source="cYRIdMAdLQL1WSYvsz5K-4" target="cYRIdMAdLQL1WSYvsz5K-7">
          <mxGeometry width="100" relative="1" as="geometry">
            <mxPoint x="380" y="-100" as="sourcePoint" />
            <mxPoint x="480" y="-100" as="targetPoint" />
          </mxGeometry>
        </mxCell>
        <mxCell id="cYRIdMAdLQL1WSYvsz5K-14" value="" style="edgeStyle=orthogonalEdgeStyle;html=1;endArrow=openThin;elbow=vertical;startArrow=none;endFill=0;strokeColor=#545B64;rounded=0;" edge="1" parent="1" source="cYRIdMAdLQL1WSYvsz5K-2" target="cYRIdMAdLQL1WSYvsz5K-13">
          <mxGeometry width="100" relative="1" as="geometry">
            <mxPoint x="450" y="-150" as="sourcePoint" />
            <mxPoint x="550" y="-150" as="targetPoint" />
            <Array as="points">
              <mxPoint x="210" y="-270" />
            </Array>
          </mxGeometry>
        </mxCell>
        <mxCell id="cYRIdMAdLQL1WSYvsz5K-17" value="" style="edgeStyle=orthogonalEdgeStyle;html=1;endArrow=none;elbow=vertical;startArrow=openThin;startFill=0;strokeColor=#545B64;rounded=0;" edge="1" parent="1" source="cYRIdMAdLQL1WSYvsz5K-2" target="cYRIdMAdLQL1WSYvsz5K-13">
          <mxGeometry width="100" relative="1" as="geometry">
            <mxPoint x="390" y="-250" as="sourcePoint" />
            <mxPoint x="490" y="-250" as="targetPoint" />
            <Array as="points">
              <mxPoint x="220" y="-260" />
            </Array>
          </mxGeometry>
        </mxCell>
        <mxCell id="cYRIdMAdLQL1WSYvsz5K-18" value="2. OAuth Code" style="text;whiteSpace=wrap;" vertex="1" parent="1">
          <mxGeometry x="220" y="-260" width="140" height="40" as="geometry" />
        </mxCell>
        <mxCell id="cYRIdMAdLQL1WSYvsz5K-19" value="" style="edgeStyle=orthogonalEdgeStyle;html=1;endArrow=openThin;elbow=vertical;startArrow=none;endFill=0;strokeColor=#545B64;rounded=0;" edge="1" parent="1" source="cYRIdMAdLQL1WSYvsz5K-2" target="cYRIdMAdLQL1WSYvsz5K-13">
          <mxGeometry width="100" relative="1" as="geometry">
            <mxPoint x="450" y="-220" as="sourcePoint" />
            <mxPoint x="550" y="-220" as="targetPoint" />
            <Array as="points">
              <mxPoint x="230" y="-230" />
            </Array>
          </mxGeometry>
        </mxCell>
        <mxCell id="cYRIdMAdLQL1WSYvsz5K-21" value="3. Code Exchange for Tokens&#xa;(Token Exchange)" style="text;whiteSpace=wrap;" vertex="1" parent="1">
          <mxGeometry x="330" y="-230" width="180" height="40" as="geometry" />
        </mxCell>
        <mxCell id="cYRIdMAdLQL1WSYvsz5K-22" value="" style="edgeStyle=orthogonalEdgeStyle;html=1;endArrow=none;elbow=vertical;startArrow=openThin;startFill=0;strokeColor=#545B64;rounded=0;entryX=0.25;entryY=1;entryDx=0;entryDy=0;entryPerimeter=0;" edge="1" parent="1" source="cYRIdMAdLQL1WSYvsz5K-2" target="cYRIdMAdLQL1WSYvsz5K-13">
          <mxGeometry width="100" relative="1" as="geometry">
            <mxPoint x="390" y="-180" as="sourcePoint" />
            <mxPoint x="490" y="-180" as="targetPoint" />
            <Array as="points">
              <mxPoint x="240" y="-120" />
              <mxPoint x="240" y="-150" />
              <mxPoint x="410" y="-150" />
              <mxPoint x="410" y="-170" />
              <mxPoint x="521" y="-170" />
            </Array>
          </mxGeometry>
        </mxCell>
        <mxCell id="cYRIdMAdLQL1WSYvsz5K-23" value="4. ID Token, Access Token" style="text;whiteSpace=wrap;" vertex="1" parent="1">
          <mxGeometry x="240" y="-180.00000000000003" width="160" height="40" as="geometry" />
        </mxCell>
        <mxCell id="cYRIdMAdLQL1WSYvsz5K-37" value="" style="edgeStyle=orthogonalEdgeStyle;html=1;endArrow=block;elbow=vertical;startArrow=block;startFill=1;endFill=1;strokeColor=#545B64;rounded=0;" edge="1" parent="1" source="cYRIdMAdLQL1WSYvsz5K-2" target="cYRIdMAdLQL1WSYvsz5K-36">
          <mxGeometry width="100" relative="1" as="geometry">
            <mxPoint x="510" y="-25.44999999999999" as="sourcePoint" />
            <mxPoint x="610" y="-25.44999999999999" as="targetPoint" />
            <Array as="points">
              <mxPoint x="210" y="-40" />
            </Array>
          </mxGeometry>
        </mxCell>
      </root>
    </mxGraphModel>
  </diagram>
</mxfile>
